<?xml version="1.0" encoding="iso-8859-1"?>
<!-- Generator: Adobe Illustrator 19.0.0, SVG Export Plug-In . SVG Version: 6.00 Build 0)  -->
<svg version="1.1" id="Layer_1" xmlns="http://www.w3.org/2000/svg" xmlns:xlink="http://www.w3.org/1999/xlink" x="0px" y="0px"
	 viewBox="0 0 512 512" style="enable-background:new 0 0 512 512;" xml:space="preserve">
<rect x="12.8" y="128" style="fill:#BFA779;" width="384" height="320"/>
<rect x="166.4" y="128" style="fill:#7F6F51;" width="76.8" height="166.4"/>
<circle style="fill:#A0BF7C;" cx="396.8" cy="294.4" r="102.4"/>
<polygon style="fill:#FEDEA1;" points="315.733,64 93.867,64 12.8,128 396.8,128 "/>
<rect x="166.4" y="64" style="fill:#BFA779;" width="76.8" height="64"/>
<g>
	<path style="fill:#573A32;" d="M409.6,179.951V128c0-8.559-4.275-16.555-11.401-21.299l-76.8-51.2
		c-4.207-2.807-9.148-4.301-14.199-4.301H102.4c-5.052,0-9.993,1.493-14.199,4.301l-76.8,51.2C4.275,111.445,0,119.441,0,128v307.2
		c0,14.14,11.46,25.6,25.6,25.6H384c14.14,0,25.6-11.46,25.6-25.6v-26.351C467.191,402.475,512,353.69,512,294.4
		S467.191,186.325,409.6,179.951z M256,76.8h51.2l57.6,38.4H256V76.8z M179.2,76.8h51.2v38.4h-51.2V76.8z M179.2,140.8h51.2v140.8
		h-51.2V140.8z M102.4,76.8h51.2v38.4H44.8L102.4,76.8z M384,435.2H25.6V140.8h128v166.4H256V140.8h128v39.151
		c-57.591,6.374-102.4,55.159-102.4,114.449S326.409,402.475,384,408.849V435.2z M396.8,384c-49.408,0-89.6-40.192-89.6-89.6
		s40.192-89.6,89.6-89.6s89.6,40.192,89.6,89.6S446.208,384,396.8,384z"/>
	<path style="fill:#573A32;" d="M455.1,258.15c-5.828-3.891-13.824-2.364-17.749,3.55l-40.55,60.826L356.25,261.7
		c-3.951-5.914-11.921-7.45-17.749-3.55c-5.871,3.925-7.475,11.861-3.55,17.749l51.2,76.8c2.372,3.567,6.374,5.7,10.65,5.7
		s8.277-2.133,10.65-5.7l51.2-76.8C462.575,270.012,460.979,262.076,455.1,258.15z"/>
</g>
<g>
</g>
<g>
</g>
<g>
</g>
<g>
</g>
<g>
</g>
<g>
</g>
<g>
</g>
<g>
</g>
<g>
</g>
<g>
</g>
<g>
</g>
<g>
</g>
<g>
</g>
<g>
</g>
<g>
</g>
</svg>
