<?xml version="1.0" encoding="iso-8859-1"?>
<!-- Generator: Adobe Illustrator 19.0.0, SVG Export Plug-In . SVG Version: 6.00 Build 0)  -->
<svg version="1.1" id="Layer_1" xmlns="http://www.w3.org/2000/svg" xmlns:xlink="http://www.w3.org/1999/xlink" x="0px" y="0px"
	 viewBox="0 0 512.007 512.007" style="enable-background:new 0 0 512.007 512.007;" xml:space="preserve">
<polygon style="fill:#BFA779;" points="461.184,317.7 239.147,379.353 177.596,157.256 399.616,95.679 "/>
<g>
	
		<rect x="273.228" y="125.03" transform="matrix(-0.9636 0.2672 -0.2672 -0.9636 630.4575 241.0652)" style="fill:#FEDEA1;" width="51.198" height="76.797"/>
	
		<rect x="317.7" y="298.236" transform="matrix(-0.9637 0.267 -0.267 -0.9637 760.5994 544.2383)" style="fill:#FEDEA1;" width="51.2" height="51.183"/>
</g>
<path style="fill:#A0BF7C;" d="M204.8,499.204c35.294,0,64-28.706,64-64s-28.706-64-64-64c-35.285,0-64,28.706-64,64
	C140.8,470.489,169.506,499.204,204.8,499.204z"/>
<g>
	<circle style="fill:#573A32;" cx="204.8" cy="435.204" r="25.6"/>
	<path style="fill:#573A32;" d="M12.8,25.604h67.021l92.544,340.053C146.185,377.894,128,404.39,128,435.204
		c0,42.419,34.381,76.8,76.8,76.8s76.8-34.381,76.8-76.8c0-2.415-0.145-4.787-0.358-7.151L502.528,368.2
		c6.835-1.826,10.871-8.849,9.037-15.676c-1.835-6.852-8.9-10.846-15.684-9.028L274.628,403.34
		c-2.893-6.332-6.579-12.22-11.008-17.485l188.646-52.403c13.628-3.78,21.606-17.886,17.826-31.505l-54.733-197.35
		c-3.78-13.628-17.886-21.606-31.514-17.826l-197.35,54.733c-13.619,3.78-21.606,17.886-17.826,31.514l51.823,187.017
		c-5.06-1.067-10.308-1.63-15.693-1.63c-2.628,0-5.214,0.137-7.774,0.393L101.948,9.433C100.42,3.878,95.377,0.004,89.6,0.004H12.8
		C5.726,0.004,0,5.73,0,12.804S5.726,25.604,12.8,25.604z M334.421,339.571l-6.844-24.67l24.67-6.844l6.844,24.67L334.421,339.571z
		 M304.358,135.385l13.679,49.34l-24.67,6.844l-13.679-49.34L304.358,135.385z M193.348,166.165l61.67-17.101l20.523,74.01
		l74.001-20.523L329.02,128.55l61.67-17.101l54.733,197.35l-61.67,17.101l-13.679-49.34l-74.01,20.523l13.679,49.34L248.056,363.6
		L193.348,166.165z M204.8,384.004c28.228,0,51.2,22.972,51.2,51.2c0,28.228-22.972,51.2-51.2,51.2s-51.2-22.972-51.2-51.2
		C153.6,406.967,176.563,384.004,204.8,384.004z"/>
</g>
<g>
</g>
<g>
</g>
<g>
</g>
<g>
</g>
<g>
</g>
<g>
</g>
<g>
</g>
<g>
</g>
<g>
</g>
<g>
</g>
<g>
</g>
<g>
</g>
<g>
</g>
<g>
</g>
<g>
</g>
</svg>
