<?xml version="1.0" encoding="utf-8"?>
<svg version="1.1" id="Layer_1" xmlns="http://www.w3.org/2000/svg" xmlns:xlink="http://www.w3.org/1999/xlink" x="0px" y="0px"
	 viewBox="0 0 100 100" enable-background="new 0 0 100 100" xml:space="preserve">
<path fill="#D80C32" d="M92,50.8c0,23.5-19,42.5-42.5,42.5C26,93.3,7,74.3,7,50.8C7,27.3,26,8.3,49.5,8.3C72.9,8.3,92,27.3,92,50.8"
	/>
<path fill="none" stroke="#1D1D1B" stroke-width="4" d="M92,50.8c0,23.5-19,42.5-42.5,42.5C26,93.3,7,74.3,7,50.8
	C7,27.3,26,8.3,49.5,8.3C72.9,8.3,92,27.3,92,50.8"/>
<g>
	<line fill="none" stroke="#FFFFFF" stroke-width="6" x1="31.3" y1="32.6" x2="67.6" y2="69"/>
	<line fill="none" stroke="#FFFFFF" stroke-width="6" x1="67.6" y1="32.6" x2="31.3" y2="69"/>
</g>
</svg>
